<svg width="256" height="256" viewBox="0 0 16 16" xmlns="http://www.w3.org/2000/svg"><rect x="0" y="0" width="16" height="16" rx="8" fill="none"/><svg xmlns="http://www.w3.org/2000/svg" viewBox="0 0 16 16" fill="#000000" x="0" y="0" width="16" height="16"><path fill="#000000" fill-rule="evenodd" d="M11 6h-1v-.5a.5.5 0 0 0-.5-.5H8.479v5.5a.5.5 0 0 0 .5.5h.5v1h-3v-1h.5a.5.5 0 0 0 .5-.5V5H6.5a.5.5 0 0 0-.5.5V6H5V4h6v2zm2.914 2.048l-1.462-1.462l.707-.707l1.816 1.816v.707l-1.768 1.767l-.707-.707l1.414-1.414zM3.548 9.462L2.086 8L3.5 6.586l-.707-.707l-1.768 1.767v.708l1.816 1.815l.707-.707z" clip-rule="evenodd"/></svg></svg>