<svg width="256" height="256" viewBox="0 0 2048 2048" xmlns="http://www.w3.org/2000/svg"><rect x="0" y="0" width="2048" height="2048" rx="8" fill="none"/><svg xmlns="http://www.w3.org/2000/svg" viewBox="0 0 2048 2048" fill="#000000" x="0" y="0" width="2048" height="2048"><path fill="#000000" d="M1792 549v1499H128V0h1115l549 549zm-512-37h293l-293-293v293zm384 1408V640h-512V128H256v1792h1408zM749 941l-211 211l211 211l-90 90l-301-301l301-301l90 90zm512-90l301 301l-301 301l-90-90l211-211l-211-211l90-90z"/></svg></svg>