<svg width="256" height="256" viewBox="0 0 24 24" xmlns="http://www.w3.org/2000/svg"><rect x="0" y="0" width="24" height="24" rx="8" fill="none"/><svg xmlns="http://www.w3.org/2000/svg" viewBox="0 0 24 24" fill="#000000" x="0" y="0" width="24" height="24"><path fill="none" stroke="#000000" stroke-linecap="round" stroke-linejoin="round" stroke-width="1.5" d="M10.25 3.75h-2.5a4 4 0 0 0-4 4v8.5a4 4 0 0 0 4 4h8.5a4 4 0 0 0 4-4v-2.5m-6.5-10h5.5c.276 0 .526.112.707.293m.293 6.207v-5.5a1 1 0 0 0-.293-.707M12.75 11.25l6.5-6.5l.707-.707"/></svg></svg>