<svg width="256" height="256" viewBox="0 0 20 20" xmlns="http://www.w3.org/2000/svg"><rect x="0" y="0" width="20" height="20" rx="8" fill="none"/><svg xmlns="http://www.w3.org/2000/svg" viewBox="0 0 20 20" fill="#000000" x="0" y="0" width="20" height="20"><path fill="#000000" d="M4.5 2A2.5 2.5 0 0 0 2 4.5v8A2.5 2.5 0 0 0 4.5 15h8a2.5 2.5 0 0 0 2.5-2.5v-8A2.5 2.5 0 0 0 12.5 2h-8ZM3 12.5V6h11v6.5a1.5 1.5 0 0 1-1.5 1.5h-8A1.5 1.5 0 0 1 3 12.5ZM3 5v-.5A1.5 1.5 0 0 1 4.5 3h8A1.5 1.5 0 0 1 14 4.5V5H3Zm4.5 13a2.5 2.5 0 0 1-2.45-2h1.035A1.5 1.5 0 0 0 7.5 17H14a3 3 0 0 0 3-3V7.5a1.5 1.5 0 0 0-1-1.415V5.05a2.5 2.5 0 0 1 2 2.45V14a4 4 0 0 1-4 4H7.5Z"/></svg></svg>